PathFileType	4	(X/Y/Z)	E:/New_biomech_experiments/MICROGRAVITY MOCAP/Session 2024-06-22/Neeraj_FullAction_pp_22_06_24_t02 (1).trc																																																																											
DataRate	CameraRate	NumFrames	NumMarkers	Units	OrigDataRate	OrigDataStartFrame	OrigNumFrames																																																																							
120	120	15	19	m	120	948	7579																																																																							
Frame#	Time	RSHO			RBAK			LBHD			RUPA			PRSHO			RELB			CLAV			RFHD			LFHD			C7			RWRB			RFRM			RWRA			MRELB			DIA			STRN			ARSHO			RBHD			T10																						
		X1	Y1	Z1	X2	Y2	Z2	X3	Y3	Z3	X4	Y4	Z4	X5	Y5	Z5	X6	Y6	Z6	X7	Y7	Z7	X8	Y8	Z8	X9	Y9	Z9	X10	Y10	Z10	X11	Y11	Z11	X12	Y12	Z12	X13	Y13	Z13	X14	Y14	Z14	X15	Y15	Z15	X16	Y16	Z16	X17	Y17	Z17	X18	Y18	Z18	X19	Y19	Z19																				y19
																																																																														
948	7.892	-0.04434	0.0643	0.08704	-0.10953	-0.13137	-0.00575	-0.03126	0.21641	-0.12754	-0.03305	0.00423	0.26253	-0.10419	-0.02634	0.06327	-0.04268	-0.0175	0.39439	0.11181	-0.01086	-0.07753	0.0668	0.30997	0.01966	0.08208	0.32784	-0.08152	-0.08823	0.02964	-0.0863	-0.06908	-0.10006	0.67842	-0.03306	-0.0389	0.52928	0.0299	-0.10202	0.66628	0.0087	-0.12637	0.38317	0.08313	-0.32423	0.09932	0.14669	-0.17418	-0.06188	0.06692	0.0076	0.08194	-0.05805	0.21453	-0.02454	-0.10153	-1.5863	-0.07282																				-1.5863
949	7.9	-0.0443	0.06426	0.08712	-0.10953	-0.13137	-0.00576	-0.03123	0.21641	-0.12757	-0.03306	0.00413	0.26254	-0.10419	-0.02635	0.0633	-0.04268	-0.01769	0.39435	0.11181	-0.01087	-0.0775	0.0668	0.30997	0.01966	0.08211	0.3278	-0.08154	-0.08822	0.02963	-0.0863	-0.06902	-0.10037	0.67836	-0.03301	-0.03911	0.52929	0.02994	-0.10228	0.66626	0.00875	-0.12651	0.38311	0.08312	-0.32425	0.09937	0.14667	-0.17419	-0.06186	0.06697	0.0076	0.08196	-0.058	0.21451	-0.02452	-0.10153	-1.5863	-0.07277																				-1.5863
950	7.908	-0.04388	0.0641	0.08765	-0.10956	-0.13136	-0.00575	-0.03149	0.21652	-0.12786	-0.03272	0.00322	0.26215	-0.1042	-0.02637	0.0633	-0.04269	-0.01786	0.39434	0.11181	-0.0109	-0.0775	0.06689	0.31008	0.01979	0.08219	0.32781	-0.08149	-0.0882	0.02965	-0.08629	-0.06895	-0.10066	0.67839	-0.03297	-0.03933	0.52929	0.03001	-0.10255	0.66626	0.00878	-0.12671	0.38309	0.08314	-0.32425	0.09935	0.14666	-0.1742	-0.06187	0.06697	0.0076	0.08197	-0.05854	0.21424	-0.02487	-0.1015	-1.58629	-0.07275																				-1.58629
951	7.917	-0.04425	0.06422	0.08719	-0.10956	-0.13138	-0.00574	-0.03147	0.21651	-0.12786	-0.03306	0.00391	0.26257	-0.10419	-0.02638	0.0633	-0.04268	-0.01804	0.39435	0.11181	-0.01091	-0.0775	0.06704	0.31005	0.01983	0.08224	0.32779	-0.08146	-0.08821	0.02961	-0.08631	-0.06888	-0.10095	0.67836	-0.03303	-0.03969	0.52926	0.03009	-0.10283	0.66616	0.00885	-0.12684	0.38305	0.08318	-0.32426	0.09938	0.14664	-0.17421	-0.06186	0.06697	0.00756	0.08199	-0.05797	0.21456	-0.02453	-0.10152	-1.58631	-0.07277																				-1.58631
952	7.925	-0.04423	0.06417	0.08721	-0.10954	-0.1314	-0.00571	-0.03113	0.21641	-0.12754	-0.03302	0.00382	0.2626	-0.10418	-0.02641	0.06332	-0.04265	-0.0182	0.39433	0.11182	-0.01092	-0.07749	0.06692	0.30992	0.01974	0.08227	0.32777	-0.08149	-0.08822	0.02963	-0.08628	-0.06882	-0.10059	0.67861	-0.03288	-0.03983	0.52929	0.03002	-0.10364	0.66588	0.0089	-0.127	0.383	0.08315	-0.32427	0.09935	0.14664	-0.17425	-0.06186	0.06695	0.00753	0.08204	-0.05848	0.21424	-0.02489	-0.10143	-1.58628	-0.07273																				-1.58628
953	7.933	-0.04423	0.06417	0.08725	-0.10956	-0.1314	-0.00575	-0.0311	0.21644	-0.12754	-0.03268	0.00294	0.26218	-0.10418	-0.02638	0.06331	-0.04263	-0.01837	0.39434	0.11174	-0.01098	-0.07755	0.06694	0.30989	0.01975	0.08232	0.32778	-0.08144	-0.08822	0.02963	-0.08629	-0.06879	-0.10085	0.67855	-0.03286	-0.04004	0.52928	0.03011	-0.10394	0.66579	0.00891	-0.1272	0.38292	0.08316	-0.32428	0.09937	0.14663	-0.17424	-0.06182	0.06693	0.0075	0.082	-0.05792	0.21456	-0.02457	-0.10149	-1.58629	-0.07269																				-1.58629
954	7.942	-0.04423	0.06413	0.0873	-0.10954	-0.1314	-0.00572	-0.03109	0.21643	-0.12754	-0.03267	0.00283	0.2622	-0.10416	-0.02637	0.06331	-0.04261	-0.01855	0.39434	0.11181	-0.01094	-0.07747	0.06693	0.3099	0.01974	0.08233	0.32778	-0.08144	-0.08821	0.02962	-0.08627	-0.06871	-0.1012	0.67854	-0.03296	-0.04042	0.52925	0.03017	-0.10428	0.66575	0.00889	-0.12735	0.38283	0.08319	-0.32428	0.0994	0.14664	-0.17425	-0.06183	0.06697	0.00747	0.08202	-0.05795	0.21478	-0.02241	-0.1015	-1.58627	-0.0727																				-1.58627
955	7.95	-0.04417	0.0641	0.08734	-0.10953	-0.1314	-0.00573	-0.03107	0.21644	-0.12753	-0.03266	0.00273	0.26221	-0.10417	-0.0264	0.06334	-0.04258	-0.01872	0.39435	0.11181	-0.01095	-0.07745	0.06699	0.30989	0.01976	0.08233	0.32776	-0.08144	-0.08821	0.0296	-0.08624	-0.06854	-0.10138	0.67862	-0.03289	-0.04072	0.52923	0.0302	-0.10459	0.66569	0.00891	-0.12755	0.38272	0.08319	-0.32431	0.0994	0.1466	-0.17428	-0.06183	0.06693	0.00741	0.08203	-0.05793	0.21457	-0.02457	-0.10142	-1.58624	-0.07268																				-1.58624
956	7.958	-0.04427	0.06411	0.08729	-0.10951	-0.13209	-0.00622	-0.03105	0.21646	-0.1275	-0.03265	0.00262	0.2622	-0.10418	-0.0264	0.06334	-0.04273	-0.019	0.39422	0.11181	-0.01095	-0.07746	0.06719	0.31001	0.01989	0.08236	0.32774	-0.08145	-0.08821	0.02959	-0.08622	-0.06848	-0.1017	0.67856	-0.03287	-0.04094	0.52921	0.03029	-0.10491	0.66559	0.00886	-0.12774	0.38264	0.0832	-0.32434	0.09939	0.14663	-0.17428	-0.06187	0.06696	0.0074	0.08203	-0.05476	0.21117	-0.02517	-0.10148	-1.58622	-0.07268																				-1.58622
957	7.967	-0.04425	0.0641	0.08733	-0.10954	-0.13144	-0.00571	-0.03088	0.21664	-0.12743	-0.03268	0.00251	0.26223	-0.10416	-0.02643	0.06332	-0.04267	-0.01915	0.39426	0.11172	-0.01101	-0.0776	0.06708	0.30989	0.01979	0.08241	0.32776	-0.08143	-0.08821	0.02958	-0.08621	-0.06843	-0.10203	0.67852	-0.03279	-0.0412	0.52924	0.03035	-0.10523	0.66557	0.00882	-0.12795	0.38256	0.08321	-0.32431	0.09939	0.14657	-0.17428	-0.06184	0.06694	0.00738	0.08204	-0.05476	0.21215	-0.02531	-0.10147	-1.58621	-0.07266																				-1.58621
958	7.975	-0.04422	0.06403	0.08738	-0.10953	-0.13146	-0.0057	-0.03138	0.21654	-0.12782	-0.03263	0.00239	0.26223	-0.10418	-0.02643	0.06332	-0.04266	-0.01933	0.39426	0.11179	-0.01096	-0.07747	0.06708	0.30987	0.01977	0.0826	0.32787	-0.08126	-0.08823	0.02957	-0.0862	-0.06841	-0.10318	0.67818	-0.0328	-0.04144	0.52916	0.03042	-0.10558	0.66553	0.00883	-0.12814	0.38247	0.08324	-0.32432	0.09939	0.14656	-0.17429	-0.06184	0.06694	0.00738	0.08206	-0.05787	0.21458	-0.0245	-0.10148	-1.5862	-0.07265																				-1.5862
959	7.983	-0.04378	0.06386	0.0879	-0.10954	-0.13148	-0.00569	-0.03108	0.21642	-0.1275	-0.03261	0.00227	0.26228	-0.10419	-0.02647	0.06335	-0.04261	-0.01953	0.39429	0.11178	-0.01096	-0.07748	0.06712	0.30986	0.01979	0.08242	0.32773	-0.08144	-0.08824	0.02955	-0.08619	-0.06837	-0.10354	0.67809	-0.03277	-0.04165	0.5292	0.03055	-0.10564	0.66554	0.00891	-0.12826	0.3824	0.08342	-0.32443	0.09948	0.14658	-0.1743	-0.06185	0.06693	0.00737	0.08208	-0.05468	0.2112	-0.02512	-0.10144	-1.58619	-0.07263																				-1.58619
960	7.992	-0.04426	0.06399	0.0874	-0.10953	-0.13149	-0.0057	-0.03109	0.21645	-0.12748	-0.03262	0.00218	0.26228	-0.10421	-0.0265	0.06334	-0.04262	-0.01968	0.39427	0.1117	-0.011	-0.07758	0.06716	0.30985	0.0198	0.08241	0.32773	-0.08146	-0.08828	0.02955	-0.08617	-0.06841	-0.10392	0.678	-0.03276	-0.04192	0.52918	0.03055	-0.10598	0.66545	0.00892	-0.12844	0.38235	0.08328	-0.32435	0.09939	0.14656	-0.17429	-0.06183	0.06693	0.00734	0.08206	-0.0579	0.2146	-0.0245	-0.10138	-1.58617	-0.0726																				-1.58617
961	8	-0.04421	0.06395	0.08747	-0.10953	-0.13151	-0.0057	-0.03111	0.21648	-0.12743	-0.03265	0.00205	0.2623	-0.10422	-0.02652	0.06334	-0.04254	-0.02061	0.39317	0.11174	-0.01096	-0.07749	0.06724	0.30994	0.01984	0.08239	0.32774	-0.08145	-0.0883	0.02953	-0.08617	-0.0684	-0.10429	0.67792	-0.0326	-0.04224	0.52952	0.03059	-0.10629	0.66542	0.00899	-0.12863	0.38224	0.08328	-0.32435	0.09938	0.14654	-0.17428	-0.06186	0.06692	0.0073	0.08205	-0.0579	0.21476	-0.02225	-0.10136	-1.58617	-0.07258																				-1.58617
962	8.008	-0.04423	0.0639	0.08749	-0.10953	-0.13155	-0.00569	-0.03095	0.21667	-0.12742	-0.03267	0.00193	0.26229	-0.10422	-0.02658	0.06335	-0.0426	-0.02029	0.39411	0.11167	-0.01102	-0.07761	0.06714	0.30986	0.01975	0.08243	0.32772	-0.08143	-0.08833	0.0295	-0.08616	-0.06832	-0.10465	0.67792	-0.03271	-0.04244	0.52915	0.03061	-0.10662	0.66533	0.00907	-0.12881	0.38221	0.08329	-0.32432	0.09942	0.14654	-0.17429	-0.06188	0.06691	0.00728	0.08207	-0.05474	0.21218	-0.02524	-0.1014	-1.58616	-0.07258																				-1.58616
